<?xml version="1.0" encoding="UTF-8"?>
<svg version="1.1" viewBox="0 0 56 56" xmlns="http://www.w3.org/2000/svg">
	<path d="m38.8 28 10.3-10.4 3.71 3.73c1.73 1.74 2.7 4.1 2.7 6.56s-0.969 4.81-2.7 6.56l-3.71 3.71z" clip-rule="evenodd" fill="#a1d9f8" fill-rule="evenodd"/>
	<path d="m17.7 49.1 10.3-10.3 10.3 10.3-3.71 3.71c-1.74 1.73-4.1 2.7-6.56 2.7-2.46 0-4.81-0.969-6.56-2.7z" clip-rule="evenodd" fill="#002a55" fill-rule="evenodd"/>
	<path d="m38.8 28-10.8 10.8 10.3 10.3 10.8-10.8z" fill="#223282"/>
	<path d="m17.2 28-10.3 10.3 10.8 10.8 10.3-10.3z" fill="#223282"/>
	<path d="m6.93 17.6 10.3 10.3-10.3 10.3-3.73-3.71c-1.73-1.74-2.7-4.1-2.7-6.56s0.969-4.81 2.7-6.56z" clip-rule="evenodd" fill="#a1d9f8" fill-rule="evenodd"/>
	<path d="m38.3 6.93-10.3 10.3 10.8 10.8 10.3-10.3z" fill="#223282"/>
	<path d="m17.7 6.93-10.8 10.8 10.3 10.3 10.8-10.8z" fill="#223282"/>
	<path d="m38.3 6.93-10.3 10.3-10.3-10.3 3.71-3.73c1.75-1.73 4.1-2.7 6.56-2.7 2.46 0 4.81 0.969 6.56 2.7z" clip-rule="evenodd" fill="#002a55" fill-rule="evenodd"/>
</svg>
